<svg height="1598" width="720" xmlns="http://www.w3.org/2000/svg">
<rect height="1598" fill="#555" width="720"></rect>
<text fill="#7f7" font-family="Courier New" font-size="12" xml:space="preserve">
<tspan x="10" y="26">21 megabytes installed</tspan>
<tspan x="10" y="42"></tspan>
<tspan x="10" y="58">node_modules</tspan>
<tspan x="10" y="74">├── UNMET PEER DEPENDENCY grunt@&gt;=0.4.5</tspan>
<tspan x="10" y="90">└─┬ grunt-lesslint@4.0.0 </tspan>
<tspan x="10" y="106">  ├── async@1.5.2 </tspan>
<tspan x="10" y="122">  ├─┬ cache-swap@0.2.3 </tspan>
<tspan x="10" y="138">  │ ├── graceful-fs@4.1.11 </tspan>
<tspan x="10" y="154">  │ ├─┬ mkdirp@0.5.1 </tspan>
<tspan x="10" y="170">  │ │ └── minimist@0.0.8 </tspan>
<tspan x="10" y="186">  │ ├── object-assign@4.1.1 </tspan>
<tspan x="10" y="202">  │ └─┬ rimraf@2.6.1 </tspan>
<tspan x="10" y="218">  │   └─┬ glob@7.1.1 </tspan>
<tspan x="10" y="234">  │     ├── fs.realpath@1.0.0 </tspan>
<tspan x="10" y="250">  │     ├─┬ inflight@1.0.6 </tspan>
<tspan x="10" y="266">  │     │ └── wrappy@1.0.2 </tspan>
<tspan x="10" y="282">  │     ├── inherits@2.0.3 </tspan>
<tspan x="10" y="298">  │     ├─┬ minimatch@3.0.3 </tspan>
<tspan x="10" y="314">  │     │ └─┬ brace-expansion@1.1.7 </tspan>
<tspan x="10" y="330">  │     │   ├── balanced-match@0.4.2 </tspan>
<tspan x="10" y="346">  │     │   └── concat-map@0.0.1 </tspan>
<tspan x="10" y="362">  │     ├── once@1.4.0 </tspan>
<tspan x="10" y="378">  │     └── path-is-absolute@1.0.1 </tspan>
<tspan x="10" y="394">  ├─┬ chalk@1.1.3 </tspan>
<tspan x="10" y="410">  │ ├── ansi-styles@2.2.1 </tspan>
<tspan x="10" y="426">  │ ├── escape-string-regexp@1.0.5 </tspan>
<tspan x="10" y="442">  │ ├─┬ has-ansi@2.0.0 </tspan>
<tspan x="10" y="458">  │ │ └── ansi-regex@2.1.1 </tspan>
<tspan x="10" y="474">  │ ├── strip-ansi@3.0.1 </tspan>
<tspan x="10" y="490">  │ └── supports-color@2.0.0 </tspan>
<tspan x="10" y="506">  ├─┬ csslint@1.0.5 </tspan>
<tspan x="10" y="522">  │ ├── clone@2.1.1 </tspan>
<tspan x="10" y="538">  │ └── parserlib@1.1.1 </tspan>
<tspan x="10" y="554">  ├─┬ less@2.7.2 </tspan>
<tspan x="10" y="570">  │ ├─┬ errno@0.1.4 </tspan>
<tspan x="10" y="586">  │ │ └── prr@0.0.0 </tspan>
<tspan x="10" y="602">  │ ├── image-size@0.5.1 </tspan>
<tspan x="10" y="618">  │ ├── mime@1.3.4 </tspan>
<tspan x="10" y="634">  │ ├─┬ promise@7.1.1 </tspan>
<tspan x="10" y="650">  │ │ └── asap@2.0.5 </tspan>
<tspan x="10" y="666">  │ └─┬ request@2.81.0 </tspan>
<tspan x="10" y="682">  │   ├── aws-sign2@0.6.0 </tspan>
<tspan x="10" y="698">  │   ├── aws4@1.6.0 </tspan>
<tspan x="10" y="714">  │   ├── caseless@0.12.0 </tspan>
<tspan x="10" y="730">  │   ├─┬ combined-stream@1.0.5 </tspan>
<tspan x="10" y="746">  │   │ └── delayed-stream@1.0.0 </tspan>
<tspan x="10" y="762">  │   ├── extend@3.0.0 </tspan>
<tspan x="10" y="778">  │   ├── forever-agent@0.6.1 </tspan>
<tspan x="10" y="794">  │   ├─┬ form-data@2.1.4 </tspan>
<tspan x="10" y="810">  │   │ └── asynckit@0.4.0 </tspan>
<tspan x="10" y="826">  │   ├─┬ har-validator@4.2.1 </tspan>
<tspan x="10" y="842">  │   │ ├─┬ ajv@4.11.7 </tspan>
<tspan x="10" y="858">  │   │ │ ├── co@4.6.0 </tspan>
<tspan x="10" y="874">  │   │ │ └─┬ json-stable-stringify@1.0.1 </tspan>
<tspan x="10" y="890">  │   │ │   └── jsonify@0.0.0 </tspan>
<tspan x="10" y="906">  │   │ └── har-schema@1.0.5 </tspan>
<tspan x="10" y="922">  │   ├─┬ hawk@3.1.3 </tspan>
<tspan x="10" y="938">  │   │ ├── boom@2.10.1 </tspan>
<tspan x="10" y="954">  │   │ ├── cryptiles@2.0.5 </tspan>
<tspan x="10" y="970">  │   │ ├── hoek@2.16.3 </tspan>
<tspan x="10" y="986">  │   │ └── sntp@1.0.9 </tspan>
<tspan x="10" y="1002">  │   ├─┬ http-signature@1.1.1 </tspan>
<tspan x="10" y="1018">  │   │ ├── assert-plus@0.2.0 </tspan>
<tspan x="10" y="1034">  │   │ ├─┬ jsprim@1.4.0 </tspan>
<tspan x="10" y="1050">  │   │ │ ├── assert-plus@1.0.0 </tspan>
<tspan x="10" y="1066">  │   │ │ ├── extsprintf@1.0.2 </tspan>
<tspan x="10" y="1082">  │   │ │ ├── json-schema@0.2.3 </tspan>
<tspan x="10" y="1098">  │   │ │ └── verror@1.3.6 </tspan>
<tspan x="10" y="1114">  │   │ └─┬ sshpk@1.13.0 </tspan>
<tspan x="10" y="1130">  │   │   ├── asn1@0.2.3 </tspan>
<tspan x="10" y="1146">  │   │   ├── assert-plus@1.0.0 </tspan>
<tspan x="10" y="1162">  │   │   ├── bcrypt-pbkdf@1.0.1 </tspan>
<tspan x="10" y="1178">  │   │   ├─┬ dashdash@1.14.1 </tspan>
<tspan x="10" y="1194">  │   │   │ └── assert-plus@1.0.0 </tspan>
<tspan x="10" y="1210">  │   │   ├── ecc-jsbn@0.1.1 </tspan>
<tspan x="10" y="1226">  │   │   ├─┬ getpass@0.1.6 </tspan>
<tspan x="10" y="1242">  │   │   │ └── assert-plus@1.0.0 </tspan>
<tspan x="10" y="1258">  │   │   ├── jodid25519@1.0.2 </tspan>
<tspan x="10" y="1274">  │   │   ├── jsbn@0.1.1 </tspan>
<tspan x="10" y="1290">  │   │   └── tweetnacl@0.14.5 </tspan>
<tspan x="10" y="1306">  │   ├── is-typedarray@1.0.0 </tspan>
<tspan x="10" y="1322">  │   ├── isstream@0.1.2 </tspan>
<tspan x="10" y="1338">  │   ├── json-stringify-safe@5.0.1 </tspan>
<tspan x="10" y="1354">  │   ├─┬ mime-types@2.1.15 </tspan>
<tspan x="10" y="1370">  │   │ └── mime-db@1.27.0 </tspan>
<tspan x="10" y="1386">  │   ├── oauth-sign@0.8.2 </tspan>
<tspan x="10" y="1402">  │   ├── performance-now@0.2.0 </tspan>
<tspan x="10" y="1418">  │   ├── qs@6.4.0 </tspan>
<tspan x="10" y="1434">  │   ├── safe-buffer@5.0.1 </tspan>
<tspan x="10" y="1450">  │   ├── stringstream@0.0.5 </tspan>
<tspan x="10" y="1466">  │   ├─┬ tough-cookie@2.3.2 </tspan>
<tspan x="10" y="1482">  │   │ └── punycode@1.4.1 </tspan>
<tspan x="10" y="1498">  │   ├── tunnel-agent@0.6.0 </tspan>
<tspan x="10" y="1514">  │   └── uuid@3.0.1 </tspan>
<tspan x="10" y="1530">  ├── lodash@4.17.4 </tspan>
<tspan x="10" y="1546">  ├── source-map@0.5.6 </tspan>
<tspan x="10" y="1562">  ├── strip-json-comments@2.0.1 </tspan>
<tspan x="10" y="1578">  └── strip-path@1.0.0</tspan>
</text>
</svg>
